# xmcd
#
# Track frame offsets:
# 150
# 1553
# 24359
# 50803
# 70372
# 91558
# 110720
# 138175
# 162597
# 185402
# 201228
# 213209
# 237985
# 261597
#
# Disc length: 3830 seconds
#
#
# Revision: 0
# Processed by: cddbd v1.5PL3 Copyright (c) Steve Scherf et al.
# Submitted via: FreeRIP 2.11 
#
DISCID=c10ef40e
DTITLE=E-Z Rollers - Unexpected CD2 - Titles of the Unexpected
DYEAR=2003
DGENRE=Drum and Bass
TTITLE0=Intro
TTITLE1=Music keeps me
TTITLE2=Sunshine people
TTITLE3=Submission
TTITLE4=Back to love
TTITLE5=Walk this land
TTITLE6=RS 2000
TTITLE7=One crazy diva 
TTITLE8=Dust
TTITLE9=Superheroes
TTITLE10=RS 2000
TTITLE11=Tough at the top 
TTITLE12=Dollar man
TTITLE13=Half a chance 
EXTD=
EXTT0=
EXTT1=
EXTT2=
EXTT3=
EXTT4=
EXTT5=
EXTT6=
EXTT7=
EXTT8=
EXTT9=
EXTT10=
EXTT11=
EXTT12=
EXTT13=
PLAYORDER=
